<?xml version="1.0" encoding="UTF-8"?>
<svg width="36px" height="40px" viewBox="0 0 36 40" version="1.1" xmlns="http://www.w3.org/2000/svg" xmlns:xlink="http://www.w3.org/1999/xlink">
    <!-- Generator: Sketch 52.6 (67491) - http://www.bohemiancoding.com/sketch -->
    <title>骑手 copy 5</title>
    <desc>Created with Sketch.</desc>
    <defs>
        <path d="M24.4040002,27.564726 L15.3428342,35.2989542 L6.28166823,27.564726 C5.65678171,27.1090006 5.0587494,26.6003212 4.4938121,26.0386876 C-1.49793737,20.0819776 -1.49793737,10.4242425 4.4938121,4.4675325 C10.4855616,-1.4891775 20.2001069,-1.4891775 26.1918564,4.4675325 C32.1836058,10.4242425 32.1836058,20.0819776 26.1918564,26.0386876 C25.6269191,26.6003212 25.0288868,27.1090006 24.4040002,27.564726 Z" id="path-1"></path>
        <filter x="-11.4%" y="-7.1%" width="122.8%" height="119.8%" filterUnits="objectBoundingBox" id="filter-2">
            <feOffset dx="0" dy="1" in="SourceAlpha" result="shadowOffsetOuter1"></feOffset>
            <feGaussianBlur stdDeviation="1" in="shadowOffsetOuter1" result="shadowBlurOuter1"></feGaussianBlur>
            <feColorMatrix values="0 0 0 0 0   0 0 0 0 0   0 0 0 0 0  0 0 0 0.232025589 0" type="matrix" in="shadowBlurOuter1"></feColorMatrix>
        </filter>
        <linearGradient x1="50%" y1="0%" x2="50%" y2="100%" id="linearGradient-3">
            <stop stop-color="#00C2F2" offset="0%"></stop>
            <stop stop-color="#008FE1" offset="100%"></stop>
        </linearGradient>
        <linearGradient x1="50%" y1="0%" x2="50%" y2="100%" id="linearGradient-4">
            <stop stop-color="#20C7F1" offset="0%"></stop>
            <stop stop-color="#008FE1" offset="100%"></stop>
        </linearGradient>
        <linearGradient x1="83.6591059%" y1="20.5538008%" x2="5.48707084%" y2="41.4857134%" id="linearGradient-5">
            <stop stop-color="#00C2F2" offset="0%"></stop>
            <stop stop-color="#008FE1" offset="100%"></stop>
        </linearGradient>
        <linearGradient x1="86.9771394%" y1="3.72975326%" x2="35.7135145%" y2="74.4239678%" id="linearGradient-6">
            <stop stop-color="#006B99" offset="0%"></stop>
            <stop stop-color="#003960" offset="100%"></stop>
        </linearGradient>
        <path d="M0.0513368984,1.41646206 L0.0513368984,0.852583853 C1.35139027,0.217055357 2.57062997,0.00747354939 2.80731776,0 C3.62870813,1.33280304 2.90999156,3.14489587 2.65330706,3.36440497 C-0.170222347,3.21405183 0.0513368984,1.82998714 0.0513368984,1.41646206 Z" id="path-7"></path>
        <linearGradient x1="50%" y1="0%" x2="50%" y2="100%" id="linearGradient-9">
            <stop stop-color="#009AE5" offset="0%"></stop>
            <stop stop-color="#054CA3" offset="100%"></stop>
        </linearGradient>
        <linearGradient x1="18.6262585%" y1="120.516939%" x2="78.5621284%" y2="0%" id="linearGradient-10">
            <stop stop-color="#00A0E7" offset="0%"></stop>
            <stop stop-color="#FFFFFF" offset="100%"></stop>
        </linearGradient>
    </defs>
    <g id="Page-1" stroke="none" stroke-width="1" fill="none" fill-rule="evenodd">
        <g id="运力调度-调度台-查看订单-待到店" transform="translate(-930.000000, -407.000000)">
            <g id="订单流程节点" transform="translate(331.000000, 129.000000)">
                <g id="发件信息" transform="translate(30.000000, 224.000000)">
                    <g id="地图" transform="translate(430.000000, 0.000000)">
                        <g id="骑手" transform="translate(139.000000, 54.000000)">
                            <g transform="translate(2.770673, 2.052716)">
                                <g id="Combined-Shape">
                                    <use fill="black" fill-opacity="1" filter="url(#filter-2)" xlink:href="#path-1"></use>
                                    <use fill="#198FFB" fill-rule="evenodd" xlink:href="#path-1"></use>
                                </g>
                                <ellipse id="Oval-4" fill="#FFFFFF" cx="15.3452685" cy="15.2555301" rx="13.1474851" ry="13.0705992"></ellipse>
                                <g id="闪送员-带颜色" transform="translate(5.647059, 4.210526)">
                                    <path d="M0.996807755,10.8162093 L5.57839572,10.8162093 C6.12666386,10.8162093 6.57112299,11.2606684 6.57112299,11.8089366 L6.57112299,11.8226866 C6.57112299,12.3709547 6.12666386,12.8154138 5.57839572,12.8154138 L0.996807755,12.8154138 C0.448539621,12.8154138 0.00408048217,12.3709547 0.00408048217,11.8226866 L0.00408048217,11.8089366 C0.00408048217,11.2606684 0.448539621,10.8162093 0.996807755,10.8162093 Z" id="矩形" fill="#0C5B81"></path>
                                    <polygon id="Fill-1" fill="#F4CCB7" points="7.70053476 5.06443571 8.04940951 4.7160723 8.62978666 5.10263914 8.53792063 5.49891871"></polygon>
                                    <g id="分组" transform="translate(0.154011, 0.582009)">
                                        <path d="M8.72785885,4.63431731 C7.82543275,4.6346678 7.09160804,3.68553634 7.09206187,2.51850395 C7.09251579,1.35122484 7.8270788,0.401769799 8.7295049,0.401419309 C9.63193099,0.401068818 10.3657558,1.34995356 10.3653019,2.51723267 C10.3648481,3.68426505 9.63028494,4.63396682 8.72785885,4.63431731" id="Fill-5" fill="#F4CCB7" transform="translate(8.728682, 2.517868) rotate(16.000000) translate(-8.728682, -2.517868) "></path>
                                        <path d="M6.40369488,16.9805802 C6.40369488,18.4031808 5.24608185,19.5566352 3.81789022,19.5566352 C2.38990545,19.5566352 1.23208556,18.4031808 1.23208556,16.9805802 C1.23208556,15.5577735 2.38990545,14.4045252 3.81789022,14.4045252 C5.24608185,14.4045252 6.40369488,15.5577735 6.40369488,16.9805802" id="Fill-12" fill="#18212F"></path>
                                        <path d="M5.57017027,16.9764291 C5.57017027,17.9437892 4.78284447,18.7281465 3.8118231,18.7281465 C2.84080174,18.7281465 2.05347594,17.9437892 2.05347594,16.9764291 C2.05347594,16.0090689 2.84080174,15.2247117 3.8118231,15.2247117 C4.78284447,15.2247117 5.57017027,16.0090689 5.57017027,16.9764291" id="Fill-11" fill="#FFFFFF"></path>
                                        <path d="M4.52826451,16.9712402 C4.52826451,17.3696013 4.20410804,17.6925356 3.80423921,17.6925356 C3.40437038,17.6925356 3.0802139,17.3696013 3.0802139,16.9712402 C3.0802139,16.5726729 3.40437038,16.2499448 3.80423921,16.2499448 C4.20410804,16.2499448 4.52826451,16.5726729 4.52826451,16.9712402" id="Fill-13" fill="#00A4E8"></path>
                                        <path d="M19.5972778,17.1343651 C19.5972778,18.5571719 18.4394579,19.7104202 17.0114731,19.7104202 C15.5834883,19.7104202 14.4256684,18.5571719 14.4256684,17.1343651 C14.4256684,15.7117645 15.5834883,14.5583101 17.0114731,14.5583101 C18.4394579,14.5583101 19.5972778,15.7117645 19.5972778,17.1343651" id="Fill-15" fill="#18212F"></path>
                                        <path d="M18.8150901,17.130214 C18.8150901,18.0975742 18.0277643,18.8819314 17.0567429,18.8819314 C16.0857215,18.8819314 15.2983957,18.0975742 15.2983957,17.130214 C15.2983957,16.1628538 16.0857215,15.3784966 17.0567429,15.3784966 C18.0277643,15.3784966 18.8150901,16.1628538 18.8150901,17.130214" id="Fill-17" fill="#FFFFFF"></path>
                                        <path d="M17.7731843,17.1250251 C17.7731843,17.5235924 17.4490278,17.8463205 17.049159,17.8463205 C16.6492902,17.8463205 16.3251337,17.5235924 16.3251337,17.1250251 C16.3251337,16.726664 16.6492902,16.4037297 17.049159,16.4037297 C17.4490278,16.4037297 17.7731843,16.726664 17.7731843,17.1250251" id="Fill-19" fill="#00A4E8"></path>
                                        <path d="M7.74484661,16.0684245 L5.13368984,11.7490635 L9.01281396,11.6437343 C9.04004954,11.6437343 9.64787841,11.6383383 10.0879707,11.2366628 C10.1456842,11.3117746 10.2535457,11.4846613 10.2265263,11.7004998 C10.1949676,11.9517359 9.99502392,12.1893741 9.63188292,12.4067236 L9.62085899,12.4134146 L9.61394202,12.4244223 C9.59232648,12.4587406 9.09127836,13.2728837 9.34115395,14.0097565 C9.47365719,14.3999926 9.7927025,14.6918063 10.2892114,14.8778591 L13.3640214,14.8813125 L13.3798007,14.8564911 C13.3994709,14.8260579 15.436519,11.9374906 13.3475936,9.56779912 L13.5455919,9.27835963 L15.0132868,10.3251766 L15.653539,15.0138374 L13.7526687,16.0684245 L7.74484661,16.0684245 Z" id="Fill-21" fill="#087CB4"></path>
                                        <path d="M1.38609626,12.2164619 C1.53135266,11.93285 2.04039854,10.7799484 2.97754011,10.6955555 L9.03529412,10.6955555 C9.0387526,10.6966347 10.1129367,10.9242365 10.2724593,11.4245502 C10.3433583,11.6472956 10.219069,11.9136404 9.90240135,12.2164619 L1.38609626,12.2164619 Z" id="Fill-25" fill="#0C5B81"></path>
                                        <path d="M7.33549634,17.2334559 C5.90535509,17.131456 6.7180976,16.4308064 6.70209346,16.261372 L14.0976198,16.2617501 L13.5512149,16.9435573 C12.9719591,17.6354571 10.1537277,17.4344565 7.33549634,17.2334559 Z" id="Fill-29" fill="#087CB4" transform="translate(10.292035, 16.842780) rotate(-2.000000) translate(-10.292035, -16.842780) "></path>
                                        <path d="M10.0106952,17.1545241 C5.76108078,17.1545241 4.93883009,17.1545241 3.54224599,17.0520008 C2.14566189,16.9494775 1.56746639,15.9048881 1.44290036,15.5726909 C1.31833433,15.2404938 1.07807487,14.642703 1.07807487,13.5149466 C1.07807487,12.3871902 1.36588573,11.5084035 1.84812834,11.4132187 C2.33037095,11.3180339 4.48846608,11.4132187 4.92834225,11.4132187 C6.8848682,11.4132187 7.7594371,15.4405502 7.76808331,15.4826387 L7.77716184,15.5255906 L13.7925537,15.5255906 L13.8087654,15.5070285 C16.3278399,12.6046475 14.1801203,9.84212992 13.6855568,9.27835963 C14.8463111,9.40246679 15.6750507,10.0312045 16.1499441,11.1490323 C16.5195697,12.0190775 16.5238928,12.8731507 16.5238928,12.8815684 C16.5238928,13.5485095 17.3740319,14.1925717 17.4101298,14.2197674 L17.4215861,14.2284009 L17.4358523,14.2301276 C18.9413744,14.4179072 19.4495557,15.109238 19.5403409,15.253634 C19.3027862,15.5950906 19.0723646,15.668044 18.9193266,15.668044 C18.8244344,15.668044 18.7639109,15.6393375 18.7632624,15.6389058 C18.1134994,15.2495331 17.3039932,15.1692411 16.998998,15.1692411 C16.9138515,15.1692411 16.7871658,15.1692411 16.6331551,15.2065812 C15.4427875,15.4040735 15.141147,16.5152103 15.0324209,16.7127026 C14.51768,17.0072503 12.8437715,17.1545241 10.0106952,17.1545241 Z" id="Fill-33" fill="url(#linearGradient-3)"></path>
                                        <path d="M13.3736877,9.54481916 L13.4512081,7.03311691 C13.8239395,7.14947042 15.580458,7.76422101 15.6383544,8.57358381 C15.6417673,8.59184011 15.6944226,8.97777837 15.4703937,9.27426074 C15.278543,9.52838849 14.9065429,9.65715628 14.3646318,9.65715628 C14.0384613,9.65715628 13.815895,9.63950852 13.3736877,9.54481916 Z" id="Fill-41" fill="#00B2ED"></path>
                                        <path d="M13.3518822,9.59192042 C13.2278009,9.58729549 13.0656907,9.08244784 13.0942124,8.30132147 C13.1229778,7.51581358 13.3170224,7.03311691 13.4437853,7.03311691 C13.569573,7.03774184 13.7316832,7.54258949 13.7031615,8.32371587 C13.6743961,9.10946717 13.4801077,9.59192042 13.3533449,9.59192042 L13.3518822,9.59192042 Z" id="Fill-45" fill="#087CB4"></path>
                                        <path d="M6.36862286,10.5572462 C6.13928202,10.1458579 4.48299156,7.1231038 7.43070223,4.40850236 C7.63561751,4.46677877 8.92433578,4.87471363 9.3101731,6.03096074 L9.09336927,9.30997997 L6.36862286,10.5572462 Z" id="Fill-49" fill="url(#linearGradient-3)"></path>
                                        <path d="M13.8237838,8.6839043 C13.8237838,8.79937793 13.728027,8.89456273 13.6052508,8.90103788 L10.7692924,8.89618152 C10.5174714,8.90956351 10.2628404,8.86855418 10.0378227,8.76128242 C9.73520518,8.61688643 9.47344104,8.40299043 9.2784689,8.13642982 L7.54922601,6.34666059 C7.54922601,6.34666059 7.33307064,5.94045245 7.76538137,5.53446013 C8.19769209,5.12803615 8.84615818,5.33114022 9.2784689,6.14377236 C9.55493161,6.66329575 9.79832254,6.73779603 10.0892677,7.34430235 C10.131418,7.43236448 10.1824306,7.51546232 10.2412249,7.59251668 C10.5034213,7.93677917 10.9404875,8.12520622 11.3909552,8.12542206 L13.5682882,8.28007038 C13.7094377,8.28028622 13.8237838,8.38777381 13.8237838,8.52029868 L13.8237838,8.6839043 Z" id="Fill-53" fill="#F4CCB7"></path>
                                        <path d="M11.2615654,14.7417729 L11.1635421,11.0135966 C11.1628289,10.9864703 11.1402604,10.9650582 11.1131341,10.9657714 C11.1115955,10.9658118 11.1100597,10.9659245 11.1085318,10.9661092 C11.096821,10.9674042 9.93090772,11.1066201 8.76221558,11.1066201 C7.66557426,11.1066201 6.92938554,10.988988 6.57429209,10.7573933 C6.39664612,10.641488 6.27860069,10.4528591 6.2631016,10.2854623 C6.21153227,9.72849092 6.51835076,9.50822768 6.98181818,9.25202732 C7.23369833,9.11259562 7.91805606,8.95265926 8.57326203,8.95265926 C9.48312698,8.95265926 11.6605245,9.3123542 12.398698,10.2093792 C12.5971852,10.450255 12.6825346,10.7209166 12.6525631,11.0138095 C12.4735277,12.7659868 12.2105323,14.4493117 12.1638878,14.7417729 L11.2615654,14.7417729 Z" id="Fill-57" fill="url(#linearGradient-3)"></path>
                                        <path d="M12.173978,14.4557868 C12.173978,14.4557868 12.9720236,14.4557868 12.9720236,14.8874639 C12.9720236,15.319141 11.2427807,15.1033025 11.2427807,15.1033025 L11.2427807,14.4557868 L12.173978,14.4557868 Z" id="Fill-61" fill="url(#linearGradient-4)"></path>
                                        <path d="M13.3989305,8.85930908 L13.3989305,8.28820028 L13.5993065,8.08811795 L13.8345579,7.9723407 C13.9344732,7.92316811 14.0516308,7.9235292 14.1512411,7.97331675 L14.3436598,8.06949204 C14.367798,8.08155688 14.3861595,8.10271066 14.39471,8.12830564 L14.5196615,8.50233311 C14.5517967,8.59852607 14.5082494,8.7037039 14.4175215,8.74902721 L14.1967599,8.85930908 L13.3989305,8.85930908 Z" id="Fill-63" fill="#F4CCB7"></path>
                                        <path d="M14.2419364,8.57148838 C14.2419364,8.69063126 14.1450988,8.78732693 14.025781,8.78732693 C13.9064633,8.78732693 13.8096257,8.69063126 13.8096257,8.57148838 C13.8096257,8.45212966 13.9064633,8.35564983 14.025781,8.35564983 C14.1450988,8.35564983 14.2419364,8.45212966 14.2419364,8.57148838" id="Fill-67" fill="#18212F"></path>
                                        <polygon id="Fill-69" fill="#0097F0" points="0.154010695 10.2458124 5.22781049 10.2458124 5.22781049 6.35644527 0.154010695 6.35644527"></polygon>
                                        <path d="M0.132875451,6.52072475 C0.0596296193,6.52072475 0,6.46044104 0,6.38639176 L0,5.8241394 C0,5.75032746 0.0596296193,5.69004375 0.132875451,5.69004375 L5.26689177,5.69004375 C5.3401376,5.69004375 5.39953246,5.75032746 5.39953246,5.8241394 L5.39953246,6.38639176 C5.39953246,6.46044104 5.3401376,6.52072475 5.26689177,6.52072475 L0.132875451,6.52072475 Z" id="Fill-72" fill="#00BDFF"></path>
                                        <path d="M2.55538733,8.5094348 L1.99349282,8.5094348 C1.97901041,8.5094348 1.99664202,8.48668525 2.00874672,8.47848339 L2.9492387,7.82751432 C2.96091109,7.81931246 2.97560966,7.83183109 2.97085424,7.84564476 L2.72085561,8.5094348 L3.33938283,8.5094348 C3.35429755,8.5094348 3.36013374,8.52886027 3.34759673,8.53684629 L2.33339577,9.18889455 C2.32129107,9.19666474 2.3061602,9.18479362 2.31113177,9.17141163 L2.55538733,8.5094348 Z" id="合并形状" fill="#FFC700"></path>
                                        <path d="M10.2233766,7.37578949 L9.19663866,8.36749471 L7.09182582,6.21286481 C6.95492743,5.90529487 7.05760122,5.63189938 7.39984721,5.39267832 C7.9132162,5.03384673 8.52925898,5.1876317 8.78594347,5.39267832 C8.95706646,5.52937607 9.43621085,6.19041313 10.2233766,7.37578949 Z" id="路径-2" fill="url(#linearGradient-5)"></path>
                                    </g>
                                    <path d="M3.47948452,8.22963512 C3.42803954,8.32007147 3.31390951,8.35115222 3.2248535,8.29891929 C3.13558134,8.24668636 3.10510343,8.13078106 3.15654841,8.04012887 C3.20799338,7.94969252 3.32190726,7.91861177 3.41117942,7.97106053 C3.50045159,8.02329346 3.53092949,8.13898293 3.47948452,8.22963512" id="Fill-84" fill="#F6F7F8"></path>
                                    <path d="M3.63443625,8.21837651 L3.42822404,8.39471661 C3.57910048,8.55573216 3.67183113,8.77416078 3.67183113,9.01438908 C3.67183113,9.50995439 3.2777799,9.91206161 2.79186265,9.91206161 C2.30572924,9.91206161 1.91167802,9.50995439 1.91167802,9.01438908 C1.91167802,8.51903961 2.30572924,8.11693239 2.79186265,8.11693239 C2.86168083,8.11693239 2.92955362,8.1253501 2.99504869,8.14132215 L3.04152209,7.87087645 C2.9611123,7.85274601 2.87767633,7.84303328 2.79186265,7.84303328 C2.15723051,7.84303328 1.64278075,8.36730511 1.64278075,9.01438908 C1.64278075,9.66147305 2.15723051,10.1859607 2.79186265,10.1859607 C3.42627864,10.1859607 3.9407284,9.66147305 3.9407284,9.01438908 C3.9407284,8.70725083 3.82443681,8.42752407 3.63443625,8.21837651" id="Fill-90" fill="#F6F7F8"></path>
                                    <g id="分组" transform="translate(5.406586, 0.015432)">
                                        <path d="M0.874003269,4.74828068 C0.87079143,4.74532025 0.762330117,4.6461459 0.621503356,4.46161252 C-0.033711682,3.60407505 -0.203167996,2.44204432 0.268725188,1.49001984 C0.754453983,0.509377884 1.8103777,0 2.85891941,0 C3.26039922,0 3.66089076,0.0902930706 4.04927614,0.268412188 C4.43914392,0.447271413 4.79466972,0.714943493 5.10547686,1.06427406 C5.11832421,1.0788295 5.12227724,1.10078601 5.11535944,1.11879529 L4.00826344,3.9615468 L3.77379923,4.50749916 C3.61666622,4.87360549 3.27596428,5.12647543 2.88411999,5.16767473 C2.69808043,5.18741092 2.51722922,5.19727901 2.34675472,5.19727901 C1.66782149,5.19727901 1.17245718,5.04629716 0.874003269,4.74828068 Z" id="Fill-94" fill="url(#linearGradient-3)"></path>
                                        <g id="分组-2" transform="translate(2.464171, 1.127756)">
                                            <mask id="mask-8" fill="white">
                                                <use xlink:href="#path-7"></use>
                                            </mask>
                                            <use id="Fill-98" fill="url(#linearGradient-6)" xlink:href="#path-7"></use>
                                            <polygon id="矩形" fill-opacity="0.1" fill="#FFFFFF" mask="url(#mask-8)" transform="translate(2.115339, 1.866299) rotate(-157.000000) translate(-2.115339, -1.866299) " points="2.01397404 -0.569121113 2.21927569 -0.569229364 2.21670474 4.3017192 2.01140309 4.30182745"></polygon>
                                            <polygon id="矩形-copy-2" fill-opacity="0.1" fill="#FFFFFF" mask="url(#mask-8)" transform="translate(1.122966, 1.445679) rotate(-157.000000) translate(-1.122966, -1.445679) " points="1.07292631 -0.989768189 1.17557713 -0.989822315 1.17300618 3.88112625 1.07035536 3.88118038"></polygon>
                                            <polygon id="矩形-copy" fill-opacity="0.1" fill="#FFFFFF" mask="url(#mask-8)" transform="translate(1.548269, 1.625945) rotate(-157.000000) translate(-1.548269, -1.625945) " points="1.34425285 -0.809421281 1.75485614 -0.809637782 1.75228519 4.06131078 1.3416819 4.06152729"></polygon>
                                        </g>
                                        <path d="M2.95480421,2.03899158 C2.95480421,2.23092603 2.79890651,2.38659523 2.60669034,2.38659523 C2.41447416,2.38659523 2.25882353,2.23092603 2.25882353,2.03899158 C2.25882353,1.84730383 2.41447416,1.69163463 2.60669034,1.69163463 C2.79890651,1.69163463 2.95480421,1.84730383 2.95480421,2.03899158" id="Fill-102" fill="url(#linearGradient-9)"></path>
                                    </g>
                                    <path d="M6.63869581,2.71945592 L6.04062103,2.71945592 C6.02489033,2.71945592 6.01891664,2.69702256 6.03205875,2.68784527 L7.05654557,1.96059627 C7.06928943,1.95162292 7.08521925,1.96549082 7.08004206,1.9807863 L6.83312978,2.71945592 L7.47583133,2.71945592 C7.49164107,2.71945592 7.49788689,2.74087266 7.48441934,2.74964332 L6.40174489,3.47842415 C6.38886288,3.48699084 6.37266277,3.47393683 6.37793268,3.45904711 L6.63869581,2.71945592 Z" id="合并形状" fill="url(#linearGradient-10)" transform="translate(6.758317, 2.719456) rotate(-15.000000) translate(-6.758317, -2.719456) "></path>
                                </g>
                            </g>
                        </g>
                    </g>
                </g>
            </g>
        </g>
    </g>
</svg>