<?xml version="1.0" encoding="UTF-8"?>
<svg width="40px" height="40px" viewBox="0 0 40 40" version="1.1" xmlns="http://www.w3.org/2000/svg" xmlns:xlink="http://www.w3.org/1999/xlink">
    <!-- Generator: Sketch 52.2 (67145) - http://www.bohemiancoding.com/sketch -->
    <title>派单中</title>
    <desc>Created with Sketch.</desc>
    <g id="Page-1" stroke="none" stroke-width="1" fill="none" fill-rule="evenodd">
        <g id="运力调度-调度台-查看订单" transform="translate(-361.000000, -149.000000)">
            <g id="订单流程节点" transform="translate(331.000000, 129.000000)">
                <g id="派单中-2" transform="translate(30.000000, 20.000000)">
                    <g id="派单中">
                        <rect id="矩形" fill="#009BFF" x="0" y="0" width="40" height="40" rx="5"></rect>
                        <g id="电脑" transform="translate(8.000000, 9.000000)" fill="#FFFFFF">
                            <path d="M22.0603125,18.78375 L1.9396875,18.78375 C1.0565625,18.78375 0.3365625,18.06375 0.3365625,17.180625 L0.3365625,2.4796875 C0.3365625,1.5965625 1.0565625,0.8765625 1.9396875,0.8765625 L22.0603125,0.8765625 C22.9434375,0.8765625 23.6634375,1.5965625 23.6634375,2.4796875 L23.6634375,17.1778125 C23.6634375,18.06375 22.9434375,18.78375 22.0603125,18.78375 Z M2.8678125,16.2525 L21.1321875,16.2525 L21.1321875,3.4078125 L2.8678125,3.4078125 L2.8678125,16.2525 Z" id="形状" fill-rule="nonzero"></path>
                            <path d="M17.1834375,13.9125 L6.8165625,13.9125 C6.6309375,13.9125 6.4790625,13.760625 6.4790625,13.575 L6.4790625,6.0853125 C6.4790625,5.8996875 6.6309375,5.7478125 6.8165625,5.7478125 L17.18625,5.7478125 C17.371875,5.7478125 17.52375,5.8996875 17.52375,6.0853125 L17.52375,13.575 C17.5209375,13.760625 17.3690625,13.9125 17.1834375,13.9125 Z" id="路径"></path>
                            <path d="M17.3296875,23.1234375 L6.6703125,23.1234375 C5.97,23.1234375 5.4046875,22.558125 5.4046875,21.8578125 C5.4046875,21.1575 5.97,20.5921875 6.6703125,20.5921875 L17.3296875,20.5921875 C18.03,20.5921875 18.5953125,21.1575 18.5953125,21.8578125 C18.5953125,22.558125 18.03,23.1234375 17.3296875,23.1234375 Z" id="路径"></path>
                        </g>
                    </g>
                </g>
            </g>
        </g>
    </g>
</svg>