<?xml version="1.0" encoding="UTF-8"?>
<svg width="44px" height="44px" viewBox="0 0 44 44" version="1.1" xmlns="http://www.w3.org/2000/svg" xmlns:xlink="http://www.w3.org/1999/xlink">
    <!-- Generator: Sketch 52.2 (67145) - http://www.bohemiancoding.com/sketch -->
    <title>物品信息</title>
    <desc>Created with Sketch.</desc>
    <g id="Page-1" stroke="none" stroke-width="1" fill="none" fill-rule="evenodd">
        <g id="运力调度-调度台-查看订单" transform="translate(-791.000000, -587.000000)">
            <g id="订单流程节点" transform="translate(331.000000, 129.000000)">
                <g id="收件信息" transform="translate(30.000000, 458.000000)">
                    <g id="物品信息-2" transform="translate(430.000000, 0.000000)">
                        <g id="物品信息">
                            <circle id="椭圆形-copy-5" fill="#009BFF" opacity="0.100000001" cx="22" cy="22" r="22"></circle>
                            <g id="箱子" transform="translate(8.000000, 7.000000)">
                                <rect id="矩形" fill="#000000" opacity="0" x="0" y="0" width="30" height="30"></rect>
                                <path d="M14.8154297,19.0576172 C15.1201172,19.2041016 27.8291016,15.8378906 28.1103516,15.3955078 C28.3916016,14.953125 23.8212891,9.79394531 23.8212891,9.79394531 L12.3955078,13.0253906 C12.3984375,13.0253906 14.5107422,18.9111328 14.8154297,19.0576172 Z" id="路径" fill="#009BFF"></path>
                                <path d="M1.875,10.8720703 C1.875,11.1855469 8.40820312,17.5605469 8.84472656,17.5517578 C9.28125,17.5400391 12.3984375,13.0283203 12.3984375,13.0283203 L5.35839844,7.20703125 C5.35839844,7.20703125 1.875,10.5556641 1.875,10.8720703 Z M17.7304687,4.125 L16.7373047,9.36621094 L16.0546875,3.87304688 C16.0546875,3.87304688 6.21972656,6.38671875 6.2109375,6.71191406 C6.20507812,7.03710938 12.1376953,11.8769531 12.6826172,11.9560547 C13.2246094,12.0351562 22.9189453,9.27539062 23.0566406,8.92382813 C23.1943359,8.57226562 17.7304687,4.125 17.7304687,4.125 Z" id="形状" fill="#009BFF" fill-rule="nonzero"></path>
                                <path d="M12.1582031,15.1904297 C12.1582031,15.1904297 9.60351562,18.8789062 9.08496094,18.9140625 C8.56347656,18.9492188 5.00390625,15.1904297 5.00390625,15.1904297 C5.00390625,15.1904297 4.90429688,19.1572266 5.00390625,19.4882812 C5.10351562,19.8193359 11.5429688,25.9863281 12.3984375,26.1240234 C13.2539062,26.2617188 24.2285156,22.7724609 24.4160156,22.5791016 C24.6035156,22.3828125 25.0576172,17.2412109 25.0576172,17.2412109 C25.0576172,17.2412109 14.6220703,20.3085938 14.2822266,20.1796875 C13.9423828,20.0507812 12.1582031,15.1904297 12.1582031,15.1904297 Z" id="路径" fill="#009BFF"></path>
                            </g>
                        </g>
                    </g>
                </g>
            </g>
        </g>
    </g>
</svg>