<?xml version="1.0" encoding="UTF-8"?>
<svg width="18px" height="18px" viewBox="0 0 18 18" version="1.1" xmlns="http://www.w3.org/2000/svg" xmlns:xlink="http://www.w3.org/1999/xlink">
    <!-- Generator: Sketch 52.6 (67491) - http://www.bohemiancoding.com/sketch -->
    <title>成功</title>
    <desc>Created with Sketch.</desc>
    <g id="Page-1" stroke="none" stroke-width="1" fill="none" fill-rule="evenodd">
        <g id="运力调度-调度台-指派" transform="translate(-272.000000, -280.000000)" fill="#009BFF">
            <g id="改派" transform="translate(242.000000, 171.000000)">
                <g id="成功" transform="translate(30.000000, 109.000000)">
                    <g id="Group-3">
                        <path d="M9.56274491,13.7288368 C9.71349491,13.5803403 9.79561991,13.3767201 9.79055741,13.165225 C9.79505741,12.954855 9.71236991,12.7517973 9.56161991,12.6038633 C9.41368241,12.4531168 9.21061991,12.3704312 9.00024491,12.3749311 C8.78874491,12.3698688 8.58455741,12.4525543 8.43661991,12.6038633 C8.28643241,12.7517973 8.20430741,12.954855 8.20880741,13.165225 C8.20880741,13.3879698 8.28530741,13.5764029 8.43774491,13.7288368 C8.58568241,13.8790207 8.78930741,13.9611438 9.00024491,13.9560814 C9.22243241,13.9560814 9.41030741,13.8807082 9.56274491,13.7288368 Z M8.29768241,4.06081434 L8.29768241,10.5468492 C8.29261991,10.7341573 8.36518241,10.9158405 8.49849491,11.0480249 C8.63068241,11.1818967 8.81180741,11.25502 9.00024491,11.2499576 C9.18755741,11.25502 9.36868241,11.1818967 9.50143241,11.0480249 C9.63474491,10.9158405 9.70786991,10.7347197 9.70280741,10.5468492 L9.70280741,4.06081434 C9.70786991,3.87294377 9.63474491,3.69126054 9.50143241,3.55907615 C9.36868241,3.42576679 9.18755741,3.35264351 9.00024491,3.35714341 C8.81180741,3.353206 8.63011991,3.42632928 8.49849491,3.56020113 C8.36518241,3.69238552 8.29205741,3.87406874 8.29655741,4.06137683 L8.29768241,4.06081434 Z M13.5176824,1.20506907 C14.8811824,1.98861312 16.0129324,3.119774 16.7959324,4.4832419 C17.5952449,5.85402213 18.0109324,7.41379792 17.9996824,9.00001058 C18.0109324,10.5867857 17.5946824,12.147124 16.7948074,13.5179042 C16.0112449,14.8813721 14.8800574,16.0130955 13.5159949,16.7960771 C12.1463074,17.5953708 10.5859324,18.010486 9.00024491,17.9997987 C7.41286991,18.010486 5.85249491,17.5948083 4.48168241,16.7949521 C3.11818241,16.011408 1.98699491,14.8802472 1.20343241,13.5162168 C0.404119914,12.1465615 -0.0115675857,10.5862232 0.000244914346,9.00001058 C0.000244914346,7.37104893 0.401307414,5.86583436 1.20455741,4.48211693 C1.98811991,3.11864902 3.11930741,1.98692566 4.48336991,1.20394409 C5.85361991,0.404650406 7.41343241,-0.0110273093 9.00024491,0.000222425937 C10.6292449,0.000222425937 12.1339324,0.401837972 13.5176824,1.20506907 Z" id="Fill-1" transform="translate(8.999952, 9.000000) scale(1, -1) translate(-8.999952, -9.000000) "></path>
                    </g>
                </g>
            </g>
        </g>
    </g>
</svg>