<?xml version="1.0" encoding="UTF-8"?>
<svg width="44px" height="43px" viewBox="0 0 44 43" version="1.1" xmlns="http://www.w3.org/2000/svg" xmlns:xlink="http://www.w3.org/1999/xlink">
    <!-- Generator: Sketch 52.2 (67145) - http://www.bohemiancoding.com/sketch -->
    <title>LOGO</title>
    <desc>Created with Sketch.</desc>
    <g id="Page-1" stroke="none" stroke-width="1" fill="none" fill-rule="evenodd">
        <g id="登录页" transform="translate(-587.000000, -186.000000)">
            <g id="Group" transform="translate(587.000000, 186.000000)">
                <g id="LOGO">
                    <g id="Group-9">
                        <path d="M34.8477741,22.6920067 L15.8247765,34.6323806 C15.5986931,34.7743075 15.3150224,34.5569605 15.4074464,34.312188 L19.9881234,22.1935484 L34.694208,22.1935484 C34.9743239,22.1935484 35.0823889,22.5452803 34.8477741,22.6920067" id="Fill-1" fill="#FFC800"></path>
                        <path d="M9.9176816,21.6738845 L27.5592498,9.75663981 C27.7789429,9.60867498 28.0530429,9.83526846 27.9635127,10.0897394 L23.7128976,22.1935484 L10.0664394,22.1935484 C9.79509419,22.1935484 9.6904128,21.8268529 9.9176816,21.6738845" id="Fill-3" fill="#FFC800"></path>
                        <path d="M34.6233926,7.62864916 C33.4643732,9.61838673 30.8980271,10.3006468 28.8903723,9.1515377 C26.8834745,8.00317916 26.1960874,5.45802635 27.3543498,3.46828878 C28.5133692,1.47780065 31.0797153,0.796291136 33.0873702,1.94540024 C35.0942679,3.09375877 35.781655,5.63891158 34.6233926,7.62864916" id="Fill-5" fill="#FFC800"></path>
                        <path d="M37.35709,6.87278234 L33.490076,10.1024032 C36.3194124,13.0524182 38.0576612,17.0483664 38.0576612,21.4481897 C38.0576612,30.5226097 30.6669823,37.8793519 21.5498463,37.8793519 C12.4327104,37.8793519 5.04203144,30.5226097 5.04203144,21.4481897 C5.04203144,12.3744601 12.4327104,5.01771793 21.5498463,5.01771793 C22.8615097,5.01771793 24.1371042,5.1709834 25.360676,5.45887393 L26.2374304,0.51019449 C24.728081,0.176738551 23.1597727,0 21.5498463,0 C9.64846022,0 0,9.6025645 0,21.4481897 C0,33.2945054 9.64846022,42.8970699 21.5498463,42.8970699 C33.4512324,42.8970699 43.098999,33.2945054 43.098999,21.4481897 C43.098999,15.8201715 40.9202921,10.6988958 37.35709,6.87278234" id="Fill-7" fill="#009BFF"></path>
                    </g>
                </g>
            </g>
        </g>
    </g>
</svg>