<?xml version="1.0" encoding="UTF-8"?>
<svg width="40px" height="40px" viewBox="0 0 40 40" version="1.1" xmlns="http://www.w3.org/2000/svg" xmlns:xlink="http://www.w3.org/1999/xlink">
    <!-- Generator: Sketch 52.6 (67491) - http://www.bohemiancoding.com/sketch -->
    <title>改派</title>
    <desc>Created with Sketch.</desc>
    <g id="Page-1" stroke="none" stroke-width="1" fill="none" fill-rule="evenodd">
        <g id="运力调度-调度台-指派" transform="translate(-272.000000, -191.000000)">
            <g id="改派" transform="translate(242.000000, 171.000000)">
                <g id="订单流程节点">
                    <g id="改派-2" transform="translate(30.000000, 20.000000)">
                        <g id="改派">
                            <rect id="矩形" fill="#009BFF" x="0" y="0" width="40" height="40" rx="5"></rect>
                            <g id="电脑" transform="translate(8.000000, 9.000000)" fill="#FFFFFF">
                                <path d="M22.0603125,18.78375 L1.9396875,18.78375 C1.0565625,18.78375 0.3365625,18.06375 0.3365625,17.180625 L0.3365625,2.4796875 C0.3365625,1.5965625 1.0565625,0.8765625 1.9396875,0.8765625 L22.0603125,0.8765625 C22.9434375,0.8765625 23.6634375,1.5965625 23.6634375,2.4796875 L23.6634375,17.1778125 C23.6634375,18.06375 22.9434375,18.78375 22.0603125,18.78375 Z M2.8678125,16.2525 L21.1321875,16.2525 L21.1321875,3.4078125 L2.8678125,3.4078125 L2.8678125,16.2525 Z" id="形状" fill-rule="nonzero"></path>
                                <path d="M17.3296875,23.1234375 L6.6703125,23.1234375 C5.97,23.1234375 5.4046875,22.558125 5.4046875,21.8578125 C5.4046875,21.1575 5.97,20.5921875 6.6703125,20.5921875 L17.3296875,20.5921875 C18.03,20.5921875 18.5953125,21.1575 18.5953125,21.8578125 C18.5953125,22.558125 18.03,23.1234375 17.3296875,23.1234375 Z" id="路径"></path>
                            </g>
                            <g id="转换" transform="translate(14.000000, 3.000000)">
                                <rect id="矩形" fill="#000000" opacity="0" x="9" y="0" width="24" height="24"></rect>
                                <path d="M11,12.9102787 L3.4142,12.9102787 L4.5342,11.7567828 C4.92295759,11.3538325 4.92295759,10.7032384 4.5342,10.3002881 C4.14295086,9.89990395 3.51124914,9.89990395 3.12,10.3002881 L0.2916,13.2132774 C0.166459191,13.3420623 0.0770960287,13.5030182 0.0328,13.6794133 C0.0328,13.6814731 0.0316,13.683533 0.0312,13.6855928 C0.0282,13.6973337 0.0256,13.7092806 0.0232,13.7212276 C0.022,13.7267891 0.0206,13.7323506 0.0196,13.7379121 C0.0178,13.7469752 0.0164,13.7558324 0.015,13.7646896 C0.0136,13.7735468 0.012,13.7813741 0.0108,13.7896134 C0.0096,13.7978526 0.0092,13.8034141 0.0084,13.8102115 C0.00706666667,13.8203733 0.00586666667,13.8304664 0.0048,13.8404908 C0.0048,13.8466702 0.0038,13.8528497 0.0034,13.8592351 C0.0034,13.8697402 0.0018,13.8798333 0.0012,13.8907503 C0.0006,13.9016673 0.0012,13.9125843 0.0012,13.9235013 L0.0012,13.9401858 C0.000319800744,14.2134619 0.105268246,14.4758215 0.2928,14.6691541 C0.480273088,14.8623689 0.734780942,14.970671 1,14.9700929 L11,14.9700929 C11.5516009,14.9683962 11.9983526,14.5082835 12,13.9401858 C11.9983526,13.3720881 11.5516009,12.9119754 11,12.9102787 Z M1,19.0897213 L8.5858,19.0897213 L7.4658,20.2432172 C7.07704241,20.6461675 7.07704241,21.2967616 7.4658,21.6997119 C7.85704914,22.100096 8.48875086,22.100096 8.88,21.6997119 L11.7084,18.7867226 C11.8335408,18.6579377 11.922904,18.4969818 11.9672,18.3205867 C11.9672,18.3185269 11.9684,18.316467 11.9688,18.3144072 C11.9718,18.3026663 11.9744,18.2907194 11.9768,18.2787724 C11.978,18.2732109 11.9794,18.2676494 11.9804,18.2620879 C11.9822,18.2530248 11.9836,18.2441676 11.985,18.2353104 C11.9864,18.2264532 11.988,18.2186259 11.9892,18.2103866 C11.9904,18.2021474 11.9908,18.1965859 11.9916,18.1897885 C11.9929333,18.179764 11.9941333,18.1696709 11.9952,18.1595092 C11.9952,18.1533298 11.9952,18.1471503 11.9966,18.1407649 C11.9966,18.1302598 11.9982,18.1201667 11.9988,18.1092497 C11.9994,18.0983327 11.9988,18.0874157 11.9988,18.0764987 L11.9988,18.0598142 C11.9996802,17.7865381 11.8947318,17.5241785 11.7072,17.3308459 C11.5197269,17.1376311 11.2652191,17.029329 11,17.0299071 L1,17.0299071 C0.448399067,17.0316038 0.00164740056,17.4917165 0,18.0598142 C0.00164740056,18.6279119 0.448399067,19.0880246 1,19.0897213 Z" id="形状" fill="#FFFFFF" fill-rule="nonzero"></path>
                            </g>
                        </g>
                    </g>
                </g>
            </g>
        </g>
    </g>
</svg>