<?xml version="1.0" encoding="UTF-8"?>
<svg width="44px" height="44px" viewBox="0 0 44 44" version="1.1" xmlns="http://www.w3.org/2000/svg" xmlns:xlink="http://www.w3.org/1999/xlink">
    <!-- Generator: Sketch 52.2 (67145) - http://www.bohemiancoding.com/sketch -->
    <title>发件信息</title>
    <desc>Created with Sketch.</desc>
    <g id="Page-1" stroke="none" stroke-width="1" fill="none" fill-rule="evenodd">
        <g id="运力调度-调度台-查看订单" transform="translate(-361.000000, -354.000000)" fill="#009BFF">
            <g id="订单流程节点" transform="translate(331.000000, 129.000000)">
                <g id="发件信息" transform="translate(30.000000, 225.000000)">
                    <g id="发件信息-2">
                        <g id="发件信息">
                            <circle id="椭圆形" opacity="0.100000001" cx="22" cy="22" r="22"></circle>
                            <g id="课程商店" transform="translate(10.000000, 11.000000)" fill-rule="nonzero">
                                <path d="M24,9.51747546 C24,11.2694472 22.6566847,12.6889481 20.9999245,12.6889481 C19.343329,12.6889481 18.0000137,11.2694472 18.0000137,9.51747546 C18.0000137,11.2694472 16.6567258,12.6889481 14.9999657,12.6889481 C13.3432604,12.6889481 12.0000549,11.2694472 12.0000549,9.51747546 C12.0000549,11.2694472 10.656767,12.6889481 9.00000685,12.6889481 C7.3432467,12.6889481 5.99995884,11.2694472 5.99995884,9.51747546 C5.99995884,11.2694472 4.65667095,12.6889481 3.00004801,12.6889481 C1.34328787,12.6889481 0,11.2694472 0,9.51747546 L2.10943449,3.56831702 L21.8906753,3.56831702 L24,9.51747546 Z M20.24994,2.3793268 L3.75000515,2.3793268 C3.12887788,2.3793268 2.62497342,1.84621801 2.62497342,1.18890607 C2.62497342,0.533108785 3.12887788,0 3.75000515,0 L20.24994,0 C20.8710947,0 21.3749717,0.533108785 21.3749717,1.18890607 C21.3749717,1.84635827 20.8711221,2.3793268 20.24994,2.3793268 Z M3.37495799,13.8599306 C3.48194576,13.849412 3.58887865,13.8313762 3.69435723,13.8119379 C3.71622675,13.8089927 3.73968778,13.8059633 3.76166706,13.8030462 C3.81001599,13.7924996 3.85693803,13.7775211 3.90528697,13.7671148 C4.10878052,13.7175794 4.30804832,13.6562632 4.49998971,13.5768831 L4.49998971,13.5784258 L4.49998971,19.4301964 L19.4999554,19.4301964 L19.4999554,13.5783977 L19.4999554,13.576855 C19.690415,13.6561229 19.8896554,13.7175513 20.0932862,13.7669745 C20.1416076,13.7774931 20.1884474,13.7924715 20.2382506,13.8029059 C20.2602299,13.8059633 20.2837184,13.8089926 20.3056977,13.8119379 C20.4111488,13.8313481 20.5165176,13.849412 20.6249597,13.8598184 C20.7480821,13.8718796 20.8740582,13.8793688 21.0000069,13.8793688 C21.2564043,13.8793688 21.5068748,13.8509267 21.7499914,13.802934 L21.7499914,21.8109817 C21.7499914,22.4668912 21.2461144,23 20.6249597,23 L3.37493055,23 C2.75380328,23 2.24989883,22.4668912 2.24989883,21.8109817 L2.2498988,13.8030462 C2.49301542,13.8509267 2.74359565,13.8793689 2.99988337,13.8793689 C3.1259967,13.8793689 3.25197282,13.8718796 3.37495799,13.8599306 Z" id="形状"></path>
                            </g>
                        </g>
                    </g>
                </g>
            </g>
        </g>
    </g>
</svg>