<?xml version="1.0" encoding="UTF-8"?>
<svg width="26px" height="26px" viewBox="0 0 26 26" version="1.1" xmlns="http://www.w3.org/2000/svg" xmlns:xlink="http://www.w3.org/1999/xlink">
    <!-- Generator: Sketch 52.2 (67145) - http://www.bohemiancoding.com/sketch -->
    <title>进度完成</title>
    <desc>Created with Sketch.</desc>
    <g id="Page-1" stroke="none" stroke-width="1" fill="none" fill-rule="evenodd">
        <g id="运力调度-调度台-查看订单" transform="translate(-366.000000, -232.000000)">
            <g id="订单流程节点" transform="translate(331.000000, 129.000000)">
                <g id="搜索条件" transform="translate(30.000000, 104.000000)">
                    <g id="完成-2" transform="translate(6.000000, 0.000000)">
                        <g id="完成">
                            <circle id="椭圆形" stroke="#009BFF" stroke-width="2" cx="12" cy="12" r="12"></circle>
                            <g id="单独对号" transform="translate(7.000000, 9.000000)" fill="#009BFF">
                                <path d="M4.4034756,7.88082065 C4.24052983,8.03972645 3.97643928,8.03972645 3.81475782,7.88082065 L3.68394556,7.75294244 L3.54450845,7.61675305 L2.93109282,7.0183363 C2.92990361,7.01594957 2.93109282,7.01241186 2.92862679,7.01117609 L0.122209324,4.24963663 C-0.0407364412,4.09073083 -0.0407364412,3.83267247 0.122209324,3.67500245 L1.00459749,2.81259079 C1.16753073,2.6538425 1.43160877,2.6538425 1.59451698,2.81259079 L4.11220865,5.29003587 L9.4067129,0.119115742 C9.56840687,-0.0397052472 9.83249742,-0.0397052472 9.99540563,0.119115742 L10.8778188,0.981527397 C11.0407271,1.14027569 11.0407271,1.39725578 10.8778188,1.55600408 L4.4034756,7.88082065 Z" id="路径"></path>
                            </g>
                        </g>
                    </g>
                </g>
            </g>
        </g>
    </g>
</svg>