<?xml version="1.0" encoding="UTF-8"?>
<svg width="24px" height="24px" viewBox="0 0 24 24" version="1.1" xmlns="http://www.w3.org/2000/svg" xmlns:xlink="http://www.w3.org/1999/xlink">
    <!-- Generator: Sketch 52.2 (67145) - http://www.bohemiancoding.com/sketch -->
    <title>进度当前</title>
    <desc>Created with Sketch.</desc>
    <g id="Page-1" stroke="none" stroke-width="1" fill="none" fill-rule="evenodd">
        <g id="运力调度-调度台-查看订单" transform="translate(-469.000000, -233.000000)">
            <g id="订单流程节点" transform="translate(331.000000, 129.000000)">
                <g id="搜索条件" transform="translate(30.000000, 104.000000)">
                    <g id="完成-copy" transform="translate(108.000000, 0.000000)">
                        <g id="Group-5">
                            <g id="进度当前">
                                <circle id="椭圆形" fill="#009BFF" cx="12" cy="12" r="12"></circle>
                                <path d="M11.4034756,16.8808207 C11.2405298,17.0397264 10.9764393,17.0397264 10.8147578,16.8808207 L10.6839456,16.7529424 L10.5445084,16.616753 L9.93109282,16.0183363 C9.92990361,16.0159496 9.93109282,16.0124119 9.92862679,16.0111761 L7.12220932,13.2496366 C6.95926356,13.0907308 6.95926356,12.8326725 7.12220932,12.6750024 L8.00459749,11.8125908 C8.16753073,11.6538425 8.43160877,11.6538425 8.59451698,11.8125908 L11.1122086,14.2900359 L16.4067129,9.11911574 C16.5684069,8.96029475 16.8324974,8.96029475 16.9954056,9.11911574 L17.8778188,9.9815274 C18.0407271,10.1402757 18.0407271,10.3972558 17.8778188,10.5560041 L11.4034756,16.8808207 Z" id="路径" fill="#FFFFFF"></path>
                            </g>
                        </g>
                    </g>
                </g>
            </g>
        </g>
    </g>
</svg>